<svg width="108" height="107" viewBox="0 0 108 107" fill="none" xmlns="http://www.w3.org/2000/svg">
<rect x="0.797913" y="0.29792" width="106.404" height="106.404" rx="14.1872" fill="#8D5252" fill-opacity="0.04"/>
<circle opacity="0.1" cx="54" cy="53.5" r="29.9262" fill="#F55349"/>
<ellipse opacity="0.14" cx="54" cy="90.9077" rx="41.5641" ry="2.49385" fill="#F55349"/>
<path d="M81.8315 79.1949C81.8482 78.9954 81.8481 78.8125 81.8481 78.6297C81.8481 74.8556 78.9054 71.7965 75.2644 71.7965C71.6234 71.7965 68.6806 74.8556 68.6806 78.6297C68.6806 78.8292 68.6806 79.012 68.6973 79.1949H81.8315Z" fill="#F55349"/>
<path d="M41.9354 78.4385C42.2002 77.7698 42.362 77.0355 42.362 76.275C42.362 72.8791 39.3753 70.1256 35.7118 70.1256C32.0483 70.1256 29.0615 72.8791 29.0615 76.275C29.0615 77.0486 29.2087 77.7698 29.4882 78.4385H41.9354Z" fill="#6BB229"/>
<path d="M34.6479 79.1949C34.6479 67.7399 43.5925 58.4794 54.6153 58.4794C65.6381 58.4794 74.5827 67.7565 74.5827 79.1949H34.6479Z" fill="#FFC34F"/>
<path d="M59.9189 59.2109C58.2397 58.7288 56.4441 58.4794 54.6153 58.4794C43.5759 58.4794 34.6479 67.7565 34.6479 79.1949H45.2551C45.2551 69.6352 51.4731 61.6216 59.9189 59.2109Z" fill="#FFC34F"/>
<g style="mix-blend-mode:multiply" opacity="0.4">
<path d="M59.9189 59.2109C58.2397 58.7288 56.4441 58.4794 54.6153 58.4794C43.5759 58.4794 34.6479 67.7565 34.6479 79.1949H45.2551C45.2551 69.6352 51.4731 61.6216 59.9189 59.2109Z" fill="#FFC34F"/>
</g>
<g style="mix-blend-mode:multiply" opacity="0.6">
<path d="M53.2354 64.9135L50.6418 65.6949C50.0765 65.8778 49.478 65.5287 49.3284 64.9468C49.1621 64.3649 49.478 63.7331 50.0433 63.5834L52.6369 62.802C53.2021 62.6192 53.8007 62.9683 53.9503 63.5502C54.1165 64.1321 53.8007 64.7639 53.2354 64.9135Z" fill="#FFC34F"/>
</g>
<g style="mix-blend-mode:multiply" opacity="0.6">
<path d="M53.8006 70.4498L51.9386 68.4215C51.5396 67.9726 51.5562 67.2743 51.9718 66.8587C52.4041 66.443 53.0857 66.4597 53.4848 66.8919L55.3468 68.9203C55.7625 69.3692 55.7292 70.0674 55.3136 70.4831C54.8647 70.8987 54.2163 70.8821 53.8006 70.4498Z" fill="#FFC34F"/>
</g>
<g style="mix-blend-mode:multiply" opacity="0.6">
<path d="M55.6461 77.6155L56.8764 75.1216C57.1424 74.573 57.7908 74.3569 58.3062 74.6395C58.8382 74.9221 59.0378 75.5872 58.7717 76.1358L57.5414 78.6297C57.2754 79.1783 56.627 79.3944 56.1116 79.1118C55.5796 78.8458 55.3801 78.1641 55.6461 77.6155Z" fill="#FFC34F"/>
</g>
<g style="mix-blend-mode:multiply" opacity="0.6">
<path d="M61.2157 71.4474L58.5223 71.5471C57.9404 71.5638 57.4417 71.0816 57.4084 70.4831C57.3918 69.8846 57.8573 69.3525 58.4392 69.3359L61.1326 69.2362C61.7145 69.2195 62.2132 69.7017 62.2465 70.3002C62.2631 70.8987 61.7976 71.4141 61.2157 71.4474Z" fill="#FFC34F"/>
</g>
<g style="mix-blend-mode:multiply" opacity="0.6">
<path d="M52.5537 74.5564L49.9103 75.1216C49.3284 75.238 48.7631 74.8556 48.6467 74.2571C48.5303 73.6586 48.8961 73.0767 49.478 72.9437L52.1215 72.3784C52.7034 72.262 53.2686 72.6444 53.385 73.2429C53.5014 73.8415 53.1356 74.4234 52.5537 74.5564Z" fill="#FFC34F"/>
</g>
<g style="mix-blend-mode:multiply" opacity="0.6">
<path d="M64.8401 75.6204L62.2465 74.8889C61.6812 74.7226 61.3321 74.1241 61.4817 73.5422C61.6313 72.9603 62.2132 72.5945 62.7785 72.7608L65.3721 73.4923C65.9374 73.6586 66.2865 74.2571 66.1369 74.839C65.9873 75.4375 65.4054 75.7867 64.8401 75.6204Z" fill="#FFC34F"/>
</g>
<g style="mix-blend-mode:multiply" opacity="0.6">
<path d="M46.9177 76.7177L44.9392 78.6297C44.5069 79.0453 43.8253 79.0121 43.4263 78.5632C43.0273 78.1143 43.0605 77.416 43.4928 77.0004L45.4712 75.0884C45.9035 74.6728 46.5685 74.706 46.9842 75.1549C47.3998 75.6038 47.3665 76.3021 46.9343 76.7177H46.9177Z" fill="#FFC34F"/>
</g>
<g style="mix-blend-mode:multiply" opacity="0.6">
<path d="M43.3598 74.1906L40.683 73.8914C40.1011 73.8249 39.6689 73.2928 39.7354 72.6611C39.8019 72.0625 40.3173 71.6136 40.9158 71.6801L43.5925 71.9794C44.1744 72.0459 44.6067 72.5779 44.5402 73.2097C44.4737 73.8082 43.9583 74.2571 43.3598 74.1906Z" fill="#FFC34F"/>
</g>
<g style="mix-blend-mode:multiply" opacity="0.6">
<path d="M59.0544 66.8919L56.3776 66.5927C55.7957 66.5262 55.3635 65.9942 55.43 65.3624C55.4799 64.7639 56.0119 64.315 56.6104 64.3815L59.2871 64.6807C59.869 64.7472 60.3013 65.2793 60.2348 65.911C60.1517 66.5095 59.6363 66.9584 59.0544 66.8919Z" fill="#FFC34F"/>
</g>
<g style="mix-blend-mode:multiply" opacity="0.6">
<path d="M70.1935 72.2787L67.5002 72.3618C66.9183 72.3784 66.4195 71.8963 66.3863 71.2811C66.3696 70.6826 66.8352 70.1506 67.4337 70.134L70.127 70.0508C70.7089 70.0342 71.2077 70.5163 71.2243 71.1315C71.2243 71.7633 70.7588 72.262 70.1769 72.2787H70.1935Z" fill="#FFC34F"/>
</g>
<g style="mix-blend-mode:multiply" opacity="0.6">
<path d="M45.9534 69.6352L47.6159 67.424C47.9817 66.9418 48.6467 66.8587 49.1122 67.2245C49.5778 67.6069 49.6609 68.2885 49.3117 68.7706L47.6492 70.9819C47.2834 71.464 46.6184 71.5471 46.1529 71.1814C45.6707 70.8156 45.5876 70.1173 45.9534 69.6352Z" fill="#FFC34F"/>
</g>
<g style="mix-blend-mode:multiply" opacity="0.6">
<path d="M41.5143 65.6949L44.0913 66.4929C44.6565 66.6758 44.989 67.2743 44.8062 67.8895C44.6399 68.4714 44.0414 68.8205 43.4761 68.6376L40.8991 67.8396C40.3339 67.6567 40.0013 67.0582 40.1842 66.4431C40.3671 65.8612 40.9656 65.512 41.5309 65.6949H41.5143Z" fill="#FFC34F"/>
</g>
<g style="mix-blend-mode:multiply" opacity="0.6">
<path d="M63.5599 66.5927L66.1036 65.6284C66.6689 65.4123 67.2674 65.7115 67.4836 66.2768C67.6997 66.8587 67.4004 67.4905 66.8684 67.7066L64.3247 68.6709C63.7594 68.887 63.1609 68.5878 62.9448 68.0225C62.7286 67.4406 63.0113 66.8088 63.5599 66.5927Z" fill="#FFC34F"/>
</g>
<path d="M52.4706 51.5465C52.0882 51.5465 51.7225 51.3968 51.4398 51.1142C49.1288 48.8032 49.0291 45.0957 51.1738 42.685C51.2403 42.5354 51.3401 42.419 51.4398 42.3026C52.7034 41.0391 52.7034 38.9609 51.4398 37.6973C50.8745 37.132 50.8745 36.201 51.4398 35.6357C52.0051 35.0705 52.9361 35.0705 53.5014 35.6357C54.6652 36.7995 55.3136 38.3623 55.3136 39.9916C55.3136 41.5046 54.7816 42.951 53.7674 44.0649C53.7009 44.2146 53.6012 44.3309 53.5014 44.4473C52.2378 45.7109 52.2378 47.7891 53.5014 49.0526C54.0667 49.6179 54.0667 50.5489 53.5014 51.1142C53.2354 51.3968 52.853 51.5465 52.4872 51.5465H52.4706Z" fill="#FFC34F"/>
<g style="mix-blend-mode:multiply" opacity="0.4">
<path d="M52.4706 51.5465C52.0882 51.5465 51.7225 51.3968 51.4398 51.1142C49.1288 48.8032 49.0291 45.0957 51.1738 42.685C51.2403 42.5354 51.3401 42.419 51.4398 42.3026C52.7034 41.0391 52.7034 38.9609 51.4398 37.6973C50.8745 37.132 50.8745 36.201 51.4398 35.6357C52.0051 35.0705 52.9361 35.0705 53.5014 35.6357C54.6652 36.7995 55.3136 38.3623 55.3136 39.9916C55.3136 41.5046 54.7816 42.951 53.7674 44.0649C53.7009 44.2146 53.6012 44.3309 53.5014 44.4473C52.2378 45.7109 52.2378 47.7891 53.5014 49.0526C54.0667 49.6179 54.0667 50.5489 53.5014 51.1142C53.2354 51.3968 52.853 51.5465 52.4872 51.5465H52.4706Z" fill="#FFC34F"/>
</g>
<path d="M62.2132 53.3587C61.8309 53.3587 61.4651 53.209 61.1825 52.943C59.5199 51.2805 59.4368 48.637 60.9497 46.8913C61.0162 46.7915 61.0993 46.6918 61.1825 46.5754C61.781 45.9769 61.781 44.996 61.1825 44.3642C60.6172 43.7989 60.6172 42.8679 61.1825 42.3026C61.7477 41.7373 62.6788 41.7373 63.244 42.3026C64.9066 43.9652 64.9897 46.6087 63.4768 48.3544C63.4103 48.4541 63.3272 48.5705 63.244 48.6702C62.6455 49.2688 62.6455 50.2497 63.244 50.8648C63.8093 51.4301 63.8093 52.3611 63.244 52.9264C62.978 53.1924 62.5956 53.342 62.2299 53.342L62.2132 53.3587Z" fill="#FFC34F"/>
<path d="M69.9468 90.0515H38.1918C29.0809 90.4172 24.326 83.5509 22.5636 80.2091C22.1314 79.3944 22.7465 78.4302 23.6776 78.4302H84.3446C85.3089 78.4302 85.9074 79.4443 85.4252 80.259C83.4135 83.6007 78.2928 90.3507 69.9468 90.0515Z" fill="#6BB229"/>
<g style="mix-blend-mode:multiply" opacity="0.26">
<path d="M44.4429 79.594L43.9275 78.4302H23.7107C22.7464 78.4302 22.1146 79.4277 22.5635 80.2756C24.2427 83.5509 28.7649 90.0515 38.1916 90.0515H60.3869C53.5038 90.0515 47.2526 85.945 44.4595 79.594H44.4429Z" fill="#6BB229"/>
</g>
</svg>
