<svg width="30" height="30" viewBox="0 0 30 30" fill="none" xmlns="http://www.w3.org/2000/svg">
<path d="M27.3205 16.7982C27.8344 15.9281 28.125 15 28.125 13.8779C28.125 11.2989 25.9443 8.86348 23.0965 8.86348H20.959C21.2473 8.11289 21.4775 7.21523 21.4775 6.13652C21.4775 1.87125 19.2691 0 15.8953 0C12.2855 0 12.4914 5.56248 11.6906 6.36328C10.3578 7.69611 8.7835 10.2567 7.66172 11.25H1.875C0.839473 11.25 0 12.0895 0 13.125V27.1875C0 28.223 0.839473 29.0625 1.875 29.0625H5.625C6.49764 29.0625 7.23094 28.4664 7.44012 27.6592C10.0481 27.7178 11.8382 29.9994 17.8582 29.9994C18.2812 29.9994 18.75 30 19.1602 30C23.6787 30 25.7218 27.6901 25.7777 24.4143C26.5581 23.3347 26.9671 21.8876 26.7938 20.4891C27.3711 19.4079 27.5944 18.1252 27.3205 16.7982ZM23.7023 19.9523C24.4383 21.1904 23.7762 22.8475 22.8855 23.3256C23.3367 26.1838 21.8538 27.1869 19.773 27.1869H17.557C13.3594 27.1869 10.6413 24.9709 7.5 24.9709V14.0625H8.13984C9.80156 14.0625 12.123 9.90879 13.6793 8.35195C15.341 6.69023 14.7873 3.92051 15.8953 2.8125C18.665 2.8125 18.665 4.74492 18.665 6.13652C18.665 8.43164 17.0033 9.45996 17.0033 11.676H23.0965C24.3334 11.676 25.3072 12.784 25.3125 13.892C25.3178 14.9994 24.5613 16.1074 24.0076 16.1074C24.798 16.9603 24.9669 18.758 23.7023 19.9523ZM5.15625 25.3125C5.15625 26.0892 4.52666 26.7188 3.75 26.7188C2.97334 26.7188 2.34375 26.0892 2.34375 25.3125C2.34375 24.5358 2.97334 23.9062 3.75 23.9062C4.52666 23.9062 5.15625 24.5358 5.15625 25.3125Z" fill="#A098AE"/>
</svg>
