<svg width="30" height="30" viewBox="0 0 30 30" fill="none" xmlns="http://www.w3.org/2000/svg">
<path d="M27.3205 13.2018C27.5944 11.8748 27.3711 10.5921 26.7938 9.51094C26.9671 8.11242 26.5581 6.66533 25.7777 5.58574C25.7218 2.30994 23.6787 0 19.1602 0C18.75 0 18.2812 0.000585937 17.8582 0.000585937C11.7888 0.000585937 9.90217 2.34375 7.5 2.34375H6.86455C6.53408 2.05225 6.10037 1.875 5.625 1.875H1.875C0.839473 1.875 0 2.71447 0 3.75V17.8125C0 18.848 0.839473 19.6875 1.875 19.6875H5.625C6.31887 19.6875 6.92432 19.3103 7.24852 18.75H7.66172C8.78355 19.7433 10.3578 22.3039 11.6906 23.6367C12.4914 24.4375 12.2855 30 15.8953 30C19.2691 30 21.4775 28.1287 21.4775 23.8635C21.4775 22.7848 21.2473 21.8871 20.959 21.1365H23.0965C25.9443 21.1365 28.125 18.7011 28.125 16.1221C28.125 15 27.8344 14.0719 27.3205 13.2018ZM3.75 17.3438C2.97334 17.3438 2.34375 16.7142 2.34375 15.9375C2.34375 15.1608 2.97334 14.5312 3.75 14.5312C4.52666 14.5312 5.15625 15.1608 5.15625 15.9375C5.15625 16.7142 4.52666 17.3438 3.75 17.3438ZM23.0965 18.324H17.0033C17.0033 20.54 18.665 21.5684 18.665 23.8635C18.665 25.2551 18.665 27.1875 15.8953 27.1875C14.7873 26.0795 15.341 23.3098 13.6793 21.648C12.123 20.0912 9.80156 15.9375 8.13984 15.9375H7.5V5.0291C10.6413 5.0291 13.3594 2.81309 17.557 2.81309H19.773C21.8538 2.81309 23.3367 3.81621 22.8855 6.67441C23.7762 7.15254 24.4383 8.80957 23.7023 10.0477C24.9669 11.242 24.798 13.0397 24.0076 13.8926C24.5613 13.8926 25.3178 15.0006 25.3125 16.108C25.3072 17.216 24.3334 18.324 23.0965 18.324Z" fill="#A098AE"/>
</svg>
