<svg width="21.000000" height="19.000000" viewBox="0 0 21 19" fill="none" xmlns="http://www.w3.org/2000/svg" xmlns:xlink="http://www.w3.org/1999/xlink">
	<desc>
			Created with Pixso.
	</desc>
	<defs/>
	<path id="Star 1" d="M9.52 -0.54L7.41 5.94C7.35 6.15 7.15 6.29 6.94 6.29L0.12 6.29C-0.36 6.29 -0.56 6.91 -0.17 7.19L5.34 11.2C5.52 11.33 5.59 11.55 5.52 11.76L3.42 18.24C3.27 18.7 3.79 19.08 4.19 18.8L9.7 14.79C9.88 14.66 10.11 14.66 10.29 14.79L15.8 18.8C16.2 19.08 16.72 18.7 16.57 18.24L14.47 11.76C14.4 11.55 14.47 11.33 14.65 11.2L20.16 7.19C20.55 6.91 20.35 6.29 19.87 6.29L13.05 6.29C12.84 6.29 12.64 6.15 12.58 5.94L10.47 -0.54C10.32 -1 9.67 -1 9.52 -0.54Z" fill="#F8B602" fill-opacity="1.000000" fill-rule="evenodd"/>
</svg>
